# xmcd
#
# Track frame offsets: 
#        150
#        19961
#        38652
#        59378
#        77710
#        95719
#        114151
#        137573
#        159513
#        183564
#        208306
#        233621
#
# Disc length: 3495 seconds
#
# Revision: 0
# Processed by: cddbd v1.5.2PL0 Copyright (c) Steve Scherf et al.
# Submitted via: ExactAudioCopy v1.3
#
DISCID=9c0da50c
DTITLE=High End Blues - Live at Milestone
DYEAR=2019
DGENRE=Blues
TTITLE0=Midnight in Harlem (Live)
TTITLE1=Cold Cold Feeling (Live)
TTITLE2=Spare Some Love (Live)
TTITLE3=Bluebird (Live)
TTITLE4=Little Wing (Live)
TTITLE5=Soul Shine (Live)
TTITLE6=Magnolia (Live)
TTITLE7=Tennessee Whiskey (Live)
TTITLE8=St James Infirmary (Live)
TTITLE9=Hey Joe (Live)
TTITLE10=Few Feet Away (Live)
TTITLE11=Spell on You (Live)
EXTD=
EXTT0=
EXTT1=
EXTT2=
EXTT3=
EXTT4=
EXTT5=
EXTT6=
EXTT7=
EXTT8=
EXTT9=
EXTT10=
EXTT11=
PLAYORDER=
